<mxfile host="app.diagrams.net" modified="2023-05-23T15:00:09.037Z" agent="Mozilla/5.0 (Macintosh; Intel Mac OS X 10_15_7) AppleWebKit/537.36 (KHTML, like Gecko) Chrome/113.0.0.0 Safari/537.36" version="21.3.2" etag="LaEpfdzI3JyXSl8LyaUH" type="github">
  <diagram name="Page-1" id="e2CsJvjfHPYvE82fBoDO">
    <mxGraphModel>
      <root>
        <mxCell id="0" />
        <mxCell id="1" parent="0" />
      </root>
    </mxGraphModel>
  </diagram>
</mxfile>
